# xmcd CD database file
#
# Track frame offsets:
#	150
#	9931
#	24733
#	39484
#	51978
#	68980
#	93726
#	105504
#	118524
#
# Disc length: 1746 seconds
#
# Revision: 1
# Processed by: cddbd v1.4PL0 Copyright (c) Steve Scherf et al.
# Submitted via: CDValet v3.40 - Copyright (c) 1996 - 1998 Greg Leichner
#
DISCID=7106d009
DTITLE=Bare, Bobby - A Bird Named Yesterday
DYEAR=1900
DGENRE=
TTITLE0=A Bird Named Yesterday
TTITLE1=Somebody Bought My Old Hometown
TTITLE2=Ode To The Little Brown Shack Out Back
TTITLE3=The Day The Saw Mill Closed Down
TTITLE4=The Air Conditioner Song
TTITLE5=A Bird Named Yesterday (Chorus Only ) - I've Got A Thin
TTITLE5=g About Trains
TTITLE6=The Old Gang's Gone
TTITLE7=They Covered Up The Old Swimmin' Hole
TTITLE8=The Church In The Wildwood - A Bird Named Yesterday (Ch
TTITLE8=orus Only)
EXTD=
EXTT0=
EXTT1=
EXTT2=
EXTT3=
EXTT4=
EXTT5=
EXTT6=
EXTT7=
EXTT8=
PLAYORDER=
